<svg width="185" height="107" viewBox="0 0 185 107" fill="none" xmlns="http://www.w3.org/2000/svg">
<g filter="url(#filter0_d_961_264)">
<path d="M64.8102 51.82C64.8102 54.82 63.9102 57.16 62.1102 58.84C61.2702 59.56 59.7102 60.34 57.4302 61.18C55.2702 62.02 53.6502 62.44 52.5702 62.44C49.6902 62.44 46.9302 60.94 44.2902 57.94C41.6502 54.82 40.3302 51.82 40.3302 48.94C40.3302 46.42 41.8302 43.78 44.8302 41.02C47.9502 38.14 50.7702 36.7 53.2902 36.7C56.5302 36.7 59.2302 38.38 61.3902 41.74C63.6702 44.98 64.8102 48.34 64.8102 51.82ZM104.537 51.82C104.537 54.82 103.637 57.16 101.837 58.84C100.997 59.56 99.4367 60.34 97.1567 61.18C94.9967 62.02 93.3767 62.44 92.2967 62.44C89.4167 62.44 86.6567 60.94 84.0167 57.94C81.3767 54.82 80.0567 51.82 80.0567 48.94C80.0567 46.42 81.5567 43.78 84.5567 41.02C87.6767 38.14 90.4967 36.7 93.0167 36.7C96.2567 36.7 98.9567 38.38 101.117 41.74C103.397 44.98 104.537 48.34 104.537 51.82ZM144.263 51.82C144.263 54.82 143.363 57.16 141.563 58.84C140.723 59.56 139.163 60.34 136.883 61.18C134.723 62.02 133.103 62.44 132.023 62.44C129.143 62.44 126.383 60.94 123.743 57.94C121.103 54.82 119.783 51.82 119.783 48.94C119.783 46.42 121.283 43.78 124.283 41.02C127.403 38.14 130.223 36.7 132.743 36.7C135.983 36.7 138.683 38.38 140.843 41.74C143.123 44.98 144.263 48.34 144.263 51.82Z" fill="#F2B003"/>
</g>
<defs>
<filter id="filter0_d_961_264" x="0.330139" y="0.700195" width="183.933" height="105.74" filterUnits="userSpaceOnUse" color-interpolation-filters="sRGB">
<feFlood flood-opacity="0" result="BackgroundImageFix"/>
<feColorMatrix in="SourceAlpha" type="matrix" values="0 0 0 0 0 0 0 0 0 0 0 0 0 0 0 0 0 0 127 0" result="hardAlpha"/>
<feOffset dy="4"/>
<feGaussianBlur stdDeviation="20"/>
<feComposite in2="hardAlpha" operator="out"/>
<feColorMatrix type="matrix" values="0 0 0 0 1 0 0 0 0 0 0 0 0 0 0 0 0 0 0.6 0"/>
<feBlend mode="normal" in2="BackgroundImageFix" result="effect1_dropShadow_961_264"/>
<feBlend mode="normal" in="SourceGraphic" in2="effect1_dropShadow_961_264" result="shape"/>
</filter>
</defs>
</svg>
