<svg width="323" height="1643" viewBox="0 0 323 1643" fill="none" xmlns="http://www.w3.org/2000/svg">
<path d="M107.66 319H114.02C115.54 319 116.88 319.293 118.04 319.88C119.213 320.453 120.12 321.267 120.76 322.32C121.413 323.373 121.74 324.6 121.74 326C121.74 327.4 121.413 328.627 120.76 329.68C120.12 330.733 119.213 331.553 118.04 332.14C116.88 332.713 115.54 333 114.02 333H107.66V319ZM113.86 330.34C115.26 330.34 116.373 329.953 117.2 329.18C118.04 328.393 118.46 327.333 118.46 326C118.46 324.667 118.04 323.613 117.2 322.84C116.373 322.053 115.26 321.66 113.86 321.66H110.9V330.34H113.86ZM135.023 330.4V333H124.183V319H134.763V321.6H127.403V324.64H133.903V327.16H127.403V330.4H135.023ZM144.262 333.24C142.836 333.24 141.542 332.933 140.382 332.32C139.236 331.693 138.329 330.833 137.662 329.74C137.009 328.633 136.682 327.387 136.682 326C136.682 324.613 137.009 323.373 137.662 322.28C138.329 321.173 139.236 320.313 140.382 319.7C141.542 319.073 142.842 318.76 144.282 318.76C145.496 318.76 146.589 318.973 147.562 319.4C148.549 319.827 149.376 320.44 150.042 321.24L147.962 323.16C147.016 322.067 145.842 321.52 144.442 321.52C143.576 321.52 142.802 321.713 142.122 322.1C141.442 322.473 140.909 323 140.522 323.68C140.149 324.36 139.962 325.133 139.962 326C139.962 326.867 140.149 327.64 140.522 328.32C140.909 329 141.442 329.533 142.122 329.92C142.802 330.293 143.576 330.48 144.442 330.48C145.842 330.48 147.016 329.927 147.962 328.82L150.042 330.74C149.376 331.553 148.549 332.173 147.562 332.6C146.576 333.027 145.476 333.24 144.262 333.24ZM163.07 330.4V333H152.23V319H162.81V321.6H155.45V324.64H161.95V327.16H155.45V330.4H163.07ZM178.388 333L178.368 324.6L174.248 331.52H172.788L168.688 324.78V333H165.648V319H168.328L173.568 327.7L178.728 319H181.388L181.428 333H178.388ZM195.03 325.72C195.83 325.973 196.456 326.4 196.91 327C197.363 327.587 197.59 328.313 197.59 329.18C197.59 330.407 197.11 331.353 196.15 332.02C195.203 332.673 193.817 333 191.99 333H184.75V319H191.59C193.297 319 194.603 319.327 195.51 319.98C196.43 320.633 196.89 321.52 196.89 322.64C196.89 323.32 196.723 323.927 196.39 324.46C196.07 324.993 195.617 325.413 195.03 325.72ZM187.97 321.44V324.74H191.19C191.99 324.74 192.597 324.6 193.01 324.32C193.423 324.04 193.63 323.627 193.63 323.08C193.63 322.533 193.423 322.127 193.01 321.86C192.597 321.58 191.99 321.44 191.19 321.44H187.97ZM191.75 330.56C192.603 330.56 193.243 330.42 193.67 330.14C194.11 329.86 194.33 329.427 194.33 328.84C194.33 327.68 193.47 327.1 191.75 327.1H187.97V330.56H191.75ZM210.883 330.4V333H200.043V319H210.623V321.6H203.263V324.64H209.763V327.16H203.263V330.4H210.883ZM222.381 333L219.681 329.1H219.521H216.701V333H213.461V319H219.521C220.761 319 221.834 319.207 222.741 319.62C223.661 320.033 224.367 320.62 224.861 321.38C225.354 322.14 225.601 323.04 225.601 324.08C225.601 325.12 225.347 326.02 224.841 326.78C224.347 327.527 223.641 328.1 222.721 328.5L225.861 333H222.381ZM222.321 324.08C222.321 323.293 222.067 322.693 221.561 322.28C221.054 321.853 220.314 321.64 219.341 321.64H216.701V326.52H219.341C220.314 326.52 221.054 326.307 221.561 325.88C222.067 325.453 222.321 324.853 222.321 324.08Z" fill="white"/>
<path d="M124.24 758.24C123.293 758.24 122.42 758.067 121.62 757.72C120.833 757.36 120.187 756.853 119.68 756.2L121.48 754.04C122.24 755.067 123.107 755.58 124.08 755.58C125.4 755.58 126.06 754.807 126.06 753.26V746.6H121.14V744H129.28V753.08C129.28 754.8 128.853 756.093 128 756.96C127.147 757.813 125.893 758.24 124.24 758.24ZM141.407 755H134.907L133.667 758H130.347L136.587 744H139.787L146.047 758H142.647L141.407 755ZM140.387 752.54L138.167 747.18L135.947 752.54H140.387ZM160.34 744V758H157.68L150.7 749.5V758H147.5V744H150.18L157.14 752.5V744H160.34ZM169.872 758.24C167.872 758.24 166.312 757.687 165.192 756.58C164.086 755.473 163.532 753.893 163.532 751.84V744H166.772V751.72C166.772 754.227 167.812 755.48 169.892 755.48C170.906 755.48 171.679 755.18 172.212 754.58C172.746 753.967 173.012 753.013 173.012 751.72V744H176.212V751.84C176.212 753.893 175.652 755.473 174.532 756.58C173.426 757.687 171.872 758.24 169.872 758.24ZM188.341 755H181.841L180.601 758H177.281L183.521 744H186.721L192.981 758H189.581L188.341 755ZM187.321 752.54L185.101 747.18L182.881 752.54H187.321ZM203.353 758L200.653 754.1H200.493H197.673V758H194.433V744H200.493C201.733 744 202.807 744.207 203.713 744.62C204.633 745.033 205.34 745.62 205.833 746.38C206.327 747.14 206.573 748.04 206.573 749.08C206.573 750.12 206.32 751.02 205.813 751.78C205.32 752.527 204.613 753.1 203.693 753.5L206.833 758H203.353ZM203.293 749.08C203.293 748.293 203.04 747.693 202.533 747.28C202.027 746.853 201.287 746.64 200.313 746.64H197.673V751.52H200.313C201.287 751.52 202.027 751.307 202.533 750.88C203.04 750.453 203.293 749.853 203.293 749.08ZM215.665 753.04V758H212.425V753L207.005 744H210.445L214.185 750.22L217.925 744H221.105L215.665 753.04Z" fill="white"/>
<g filter="url(#filter0_d_918_2)">
<path d="M43.9 1113.6V1117.3H50.38V1119.9H43.9V1125H40.66V1111H51.24V1113.6H43.9ZM64.2734 1122.4V1125H53.4334V1111H64.0134V1113.6H56.6534V1116.64H63.1534V1119.16H56.6534V1122.4H64.2734ZM77.1314 1117.72C77.9314 1117.97 78.5581 1118.4 79.0114 1119C79.4647 1119.59 79.6914 1120.31 79.6914 1121.18C79.6914 1122.41 79.2114 1123.35 78.2514 1124.02C77.3047 1124.67 75.9181 1125 74.0914 1125H66.8514V1111H73.6914C75.3981 1111 76.7047 1111.33 77.6114 1111.98C78.5314 1112.63 78.9914 1113.52 78.9914 1114.64C78.9914 1115.32 78.8247 1115.93 78.4914 1116.46C78.1714 1116.99 77.7181 1117.41 77.1314 1117.72ZM70.0714 1113.44V1116.74H73.2914C74.0914 1116.74 74.6981 1116.6 75.1114 1116.32C75.5247 1116.04 75.7314 1115.63 75.7314 1115.08C75.7314 1114.53 75.5247 1114.13 75.1114 1113.86C74.6981 1113.58 74.0914 1113.44 73.2914 1113.44H70.0714ZM73.8514 1122.56C74.7047 1122.56 75.3447 1122.42 75.7714 1122.14C76.2114 1121.86 76.4314 1121.43 76.4314 1120.84C76.4314 1119.68 75.5714 1119.1 73.8514 1119.1H70.0714V1122.56H73.8514ZM91.0644 1125L88.3644 1121.1H88.2044H85.3844V1125H82.1444V1111H88.2044C89.4444 1111 90.5177 1111.21 91.4244 1111.62C92.3444 1112.03 93.051 1112.62 93.5444 1113.38C94.0377 1114.14 94.2844 1115.04 94.2844 1116.08C94.2844 1117.12 94.031 1118.02 93.5244 1118.78C93.031 1119.53 92.3244 1120.1 91.4044 1120.5L94.5444 1125H91.0644ZM91.0044 1116.08C91.0044 1115.29 90.751 1114.69 90.2444 1114.28C89.7377 1113.85 88.9977 1113.64 88.0244 1113.64H85.3844V1118.52H88.0244C88.9977 1118.52 89.7377 1118.31 90.2444 1117.88C90.751 1117.45 91.0044 1116.85 91.0044 1116.08ZM103.071 1125.24C101.071 1125.24 99.5114 1124.69 98.3914 1123.58C97.2847 1122.47 96.7314 1120.89 96.7314 1118.84V1111H99.9714V1118.72C99.9714 1121.23 101.011 1122.48 103.091 1122.48C104.105 1122.48 104.878 1122.18 105.411 1121.58C105.945 1120.97 106.211 1120.01 106.211 1118.72V1111H109.411V1118.84C109.411 1120.89 108.851 1122.47 107.731 1123.58C106.625 1124.69 105.071 1125.24 103.071 1125.24ZM121.54 1122H115.04L113.8 1125H110.48L116.72 1111H119.92L126.18 1125H122.78L121.54 1122ZM120.52 1119.54L118.3 1114.18L116.08 1119.54H120.52ZM136.553 1125L133.853 1121.1H133.693H130.873V1125H127.633V1111H133.693C134.933 1111 136.006 1111.21 136.913 1111.62C137.833 1112.03 138.539 1112.62 139.033 1113.38C139.526 1114.14 139.773 1115.04 139.773 1116.08C139.773 1117.12 139.519 1118.02 139.013 1118.78C138.519 1119.53 137.813 1120.1 136.893 1120.5L140.033 1125H136.553ZM136.493 1116.08C136.493 1115.29 136.239 1114.69 135.733 1114.28C135.226 1113.85 134.486 1113.64 133.513 1113.64H130.873V1118.52H133.513C134.486 1118.52 135.226 1118.31 135.733 1117.88C136.239 1117.45 136.493 1116.85 136.493 1116.08ZM148.864 1120.04V1125H145.624V1120L140.204 1111H143.644L147.384 1117.22L151.124 1111H154.304L148.864 1120.04ZM160.704 1118.12H166.364V1120.62H160.704V1118.12ZM183.923 1122H177.423L176.183 1125H172.863L179.103 1111H182.303L188.563 1125H185.163L183.923 1122ZM182.903 1119.54L180.683 1114.18L178.463 1119.54H182.903ZM196.075 1111C197.315 1111 198.389 1111.21 199.295 1111.62C200.215 1112.03 200.922 1112.62 201.415 1113.38C201.909 1114.14 202.155 1115.04 202.155 1116.08C202.155 1117.11 201.909 1118.01 201.415 1118.78C200.922 1119.54 200.215 1120.13 199.295 1120.54C198.389 1120.94 197.315 1121.14 196.075 1121.14H193.255V1125H190.015V1111H196.075ZM195.895 1118.5C196.869 1118.5 197.609 1118.29 198.115 1117.88C198.622 1117.45 198.875 1116.85 198.875 1116.08C198.875 1115.29 198.622 1114.69 198.115 1114.28C197.609 1113.85 196.869 1113.64 195.895 1113.64H193.255V1118.5H195.895ZM213.389 1125L210.689 1121.1H210.529H207.709V1125H204.469V1111H210.529C211.769 1111 212.842 1111.21 213.749 1111.62C214.669 1112.03 215.375 1112.62 215.869 1113.38C216.362 1114.14 216.609 1115.04 216.609 1116.08C216.609 1117.12 216.355 1118.02 215.849 1118.78C215.355 1119.53 214.649 1120.1 213.729 1120.5L216.869 1125H213.389ZM213.329 1116.08C213.329 1115.29 213.075 1114.69 212.569 1114.28C212.062 1113.85 211.322 1113.64 210.349 1113.64H207.709V1118.52H210.349C211.322 1118.52 212.062 1118.31 212.569 1117.88C213.075 1117.45 213.329 1116.85 213.329 1116.08ZM219.176 1111H222.416V1125H219.176V1111ZM225.738 1111H228.978V1122.36H235.998V1125H225.738V1111Z" fill="white"/>
</g>
<path d="M138.88 1418H132.38L131.14 1421H127.82L134.06 1407H137.26L143.52 1421H140.12L138.88 1418ZM137.86 1415.54L135.64 1410.18L133.42 1415.54H137.86ZM151.032 1407C152.272 1407 153.346 1407.21 154.252 1407.62C155.172 1408.03 155.879 1408.62 156.372 1409.38C156.866 1410.14 157.112 1411.04 157.112 1412.08C157.112 1413.11 156.866 1414.01 156.372 1414.78C155.879 1415.54 155.172 1416.13 154.252 1416.54C153.346 1416.94 152.272 1417.14 151.032 1417.14H148.212V1421H144.972V1407H151.032ZM150.852 1414.5C151.826 1414.5 152.566 1414.29 153.072 1413.88C153.579 1413.45 153.832 1412.85 153.832 1412.08C153.832 1411.29 153.579 1410.69 153.072 1410.28C152.566 1409.85 151.826 1409.64 150.852 1409.64H148.212V1414.5H150.852ZM168.346 1421L165.646 1417.1H165.486H162.666V1421H159.426V1407H165.486C166.726 1407 167.799 1407.21 168.706 1407.62C169.626 1408.03 170.332 1408.62 170.826 1409.38C171.319 1410.14 171.566 1411.04 171.566 1412.08C171.566 1413.12 171.312 1414.02 170.806 1414.78C170.312 1415.53 169.606 1416.1 168.686 1416.5L171.826 1421H168.346ZM168.286 1412.08C168.286 1411.29 168.032 1410.69 167.526 1410.28C167.019 1409.85 166.279 1409.64 165.306 1409.64H162.666V1414.52H165.306C166.279 1414.52 167.019 1414.31 167.526 1413.88C168.032 1413.45 168.286 1412.85 168.286 1412.08ZM174.133 1407H177.373V1421H174.133V1407ZM180.695 1407H183.935V1418.36H190.955V1421H180.695V1407Z" fill="white"/>
<g filter="url(#filter1_ddi_918_2)">
<path d="M80.8779 90.5804L80 91.459V92.701V161.299V162.541L80.8779 163.42L137.537 220.121L138.416 221H139.659H198.341H199.584L200.463 220.121L257.122 163.42L258 162.541V161.299V92.701V91.459L257.122 90.5804L200.463 33.8795L199.584 33H198.341H139.659H138.416L137.537 33.8795L80.8779 90.5804Z" stroke="#FFEDBE" stroke-width="6"/>
</g>
<g filter="url(#filter2_d_918_2)">
<path d="M169 302V230" stroke="#FFEDBE" stroke-width="3" stroke-linecap="round" stroke-linejoin="round"/>
</g>
<g filter="url(#filter3_d_918_2)">
<path d="M169 382L169 357" stroke="#FFDDBE" stroke-width="3" stroke-linecap="round"/>
</g>
<g filter="url(#filter4_d_918_2)">
<path d="M169 454V447" stroke="#FFDDBE" stroke-width="3" stroke-linecap="round"/>
</g>
<g filter="url(#filter5_d_918_2)">
<path d="M167 728V697" stroke="#FFDDBE" stroke-width="3" stroke-linecap="round"/>
</g>
<g filter="url(#filter6_d_918_2)">
<path d="M167 630V615" stroke="#FFDDBE" stroke-width="3" stroke-linecap="round"/>
</g>
<g filter="url(#filter7_d_918_2)">
<path d="M168 819V769" stroke="#FFDDBE" stroke-width="3" stroke-linecap="round"/>
</g>
<g filter="url(#filter8_d_918_2)">
<path d="M168 1106L168 994" stroke="#FFDDBE" stroke-width="3" stroke-linecap="round"/>
</g>
<g filter="url(#filter9_d_918_2)">
<path d="M164 1396L164 1366" stroke="#FFDDBE" stroke-width="3" stroke-linecap="round"/>
</g>
<g filter="url(#filter10_d_918_2)">
<path d="M164 1495L164 1432" stroke="#FFDDBE" stroke-width="3" stroke-linecap="round"/>
</g>
<g filter="url(#filter11_d_918_2)">
<path d="M164 1633L164 1566" stroke="#FFDDBE" stroke-width="3" stroke-linecap="round"/>
</g>
<g filter="url(#filter12_d_918_2)">
<path d="M165 1192V1147" stroke="#FFDDBE" stroke-width="3" stroke-linecap="round"/>
</g>
<g filter="url(#filter13_d_918_2)">
<path d="M165 1301V1269" stroke="#FFDDBE" stroke-width="3" stroke-linecap="round"/>
</g>
<g filter="url(#filter14_d_918_2)">
<path d="M168 926L168 889" stroke="#FFDDBE" stroke-width="3" stroke-linecap="round"/>
</g>
<g filter="url(#filter15_d_918_2)">
<path d="M165 552V514" stroke="#FFDDBE" stroke-width="3" stroke-linecap="round"/>
</g>
<g filter="url(#filter16_d_918_2)">
<path d="M62 484L165 484" stroke="#FFDDBE" stroke-width="3" stroke-linecap="round"/>
</g>
<g filter="url(#filter17_d_918_2)">
<path d="M66 856L169 856" stroke="#FFDDBE" stroke-width="3" stroke-linecap="round"/>
</g>
<g filter="url(#filter18_d_918_2)">
<path d="M107 664H168" stroke="#FFDDBE" stroke-width="3" stroke-linecap="round"/>
</g>
<g filter="url(#filter19_d_918_2)">
<path d="M97 1234H158" stroke="#FFDDBE" stroke-width="3" stroke-linecap="round"/>
</g>
<g filter="url(#filter20_d_918_2)">
<path d="M101 1529H162" stroke="#FFDDBE" stroke-width="3" stroke-linecap="round"/>
</g>
<g filter="url(#filter21_d_918_2)">
<path d="M168 582H312" stroke="#FFDDBE" stroke-width="3" stroke-linecap="round"/>
</g>
<g filter="url(#filter22_d_918_2)">
<path d="M169 1333H313" stroke="#FFDDBE" stroke-width="3" stroke-linecap="round"/>
</g>
<g filter="url(#filter23_d_918_2)">
<path d="M169 417H191" stroke="#FFDDBE" stroke-width="3" stroke-linecap="round"/>
</g>
<g filter="url(#filter24_d_918_2)">
<path d="M168 958H190" stroke="#FFDDBE" stroke-width="3" stroke-linecap="round"/>
</g>
<g filter="url(#filter25_d_918_2)">
<mask id="path-29-outside-1_918_2" maskUnits="userSpaceOnUse" x="146" y="459" width="43" height="50" fill="black">
<rect fill="white" x="146" y="459" width="43" height="50"/>
<path d="M150.421 468.294C149.797 467.598 149.84 466.527 150.567 465.941C153.609 463.488 157.229 461.873 161.077 461.268C165.476 460.576 169.976 461.232 174.009 463.155C178.042 465.077 181.427 468.179 183.736 472.068C186.044 475.957 187.173 480.459 186.979 485.003C186.784 489.548 185.276 493.932 182.645 497.6C180.014 501.269 176.377 504.057 172.195 505.613C168.014 507.169 163.475 507.422 159.152 506.341C155.368 505.394 151.898 503.462 149.075 500.745C148.404 500.099 148.455 499.029 149.135 498.392C149.836 497.735 150.936 497.79 151.64 498.445C153.993 500.633 156.851 502.194 159.959 502.971C163.629 503.889 167.484 503.674 171.035 502.353C174.586 501.032 177.674 498.664 179.908 495.549C182.143 492.434 183.423 488.711 183.588 484.852C183.753 480.993 182.795 477.17 180.834 473.868C178.874 470.566 175.999 467.932 172.575 466.299C169.15 464.667 165.328 464.109 161.593 464.696C158.433 465.194 155.455 466.492 152.926 468.461C152.166 469.052 151.063 469.011 150.421 468.294Z"/>
</mask>
<path d="M150.421 468.294C149.797 467.598 149.84 466.527 150.567 465.941C153.609 463.488 157.229 461.873 161.077 461.268C165.476 460.576 169.976 461.232 174.009 463.155C178.042 465.077 181.427 468.179 183.736 472.068C186.044 475.957 187.173 480.459 186.979 485.003C186.784 489.548 185.276 493.932 182.645 497.6C180.014 501.269 176.377 504.057 172.195 505.613C168.014 507.169 163.475 507.422 159.152 506.341C155.368 505.394 151.898 503.462 149.075 500.745C148.404 500.099 148.455 499.029 149.135 498.392C149.836 497.735 150.936 497.79 151.64 498.445C153.993 500.633 156.851 502.194 159.959 502.971C163.629 503.889 167.484 503.674 171.035 502.353C174.586 501.032 177.674 498.664 179.908 495.549C182.143 492.434 183.423 488.711 183.588 484.852C183.753 480.993 182.795 477.17 180.834 473.868C178.874 470.566 175.999 467.932 172.575 466.299C169.15 464.667 165.328 464.109 161.593 464.696C158.433 465.194 155.455 466.492 152.926 468.461C152.166 469.052 151.063 469.011 150.421 468.294Z" stroke="#FFEDBE" stroke-width="4" mask="url(#path-29-outside-1_918_2)"/>
</g>
<g filter="url(#filter26_d_918_2)">
<mask id="path-30-outside-2_918_2" maskUnits="userSpaceOnUse" x="150" y="831" width="43" height="50" fill="black">
<rect fill="white" x="150" y="831" width="43" height="50"/>
<path d="M154.421 840.294C153.797 839.598 153.84 838.527 154.567 837.941C157.609 835.488 161.229 833.873 165.077 833.268C169.476 832.576 173.976 833.232 178.009 835.155C182.042 837.077 185.427 840.179 187.736 844.068C190.044 847.957 191.173 852.459 190.979 857.003C190.784 861.548 189.276 865.932 186.645 869.6C184.014 873.269 180.377 876.057 176.195 877.613C172.014 879.169 167.475 879.422 163.152 878.341C159.368 877.394 155.898 875.462 153.075 872.745C152.404 872.099 152.455 871.029 153.135 870.392C153.836 869.735 154.936 869.79 155.64 870.445C157.993 872.633 160.851 874.194 163.959 874.971C167.629 875.889 171.484 875.674 175.035 874.353C178.586 873.032 181.674 870.664 183.908 867.549C186.143 864.434 187.423 860.711 187.588 856.852C187.753 852.993 186.795 849.17 184.834 845.868C182.874 842.566 179.999 839.932 176.575 838.299C173.15 836.667 169.328 836.109 165.593 836.696C162.433 837.194 159.455 838.492 156.926 840.461C156.166 841.052 155.063 841.011 154.421 840.294Z"/>
</mask>
<path d="M154.421 840.294C153.797 839.598 153.84 838.527 154.567 837.941C157.609 835.488 161.229 833.873 165.077 833.268C169.476 832.576 173.976 833.232 178.009 835.155C182.042 837.077 185.427 840.179 187.736 844.068C190.044 847.957 191.173 852.459 190.979 857.003C190.784 861.548 189.276 865.932 186.645 869.6C184.014 873.269 180.377 876.057 176.195 877.613C172.014 879.169 167.475 879.422 163.152 878.341C159.368 877.394 155.898 875.462 153.075 872.745C152.404 872.099 152.455 871.029 153.135 870.392C153.836 869.735 154.936 869.79 155.64 870.445C157.993 872.633 160.851 874.194 163.959 874.971C167.629 875.889 171.484 875.674 175.035 874.353C178.586 873.032 181.674 870.664 183.908 867.549C186.143 864.434 187.423 860.711 187.588 856.852C187.753 852.993 186.795 849.17 184.834 845.868C182.874 842.566 179.999 839.932 176.575 838.299C173.15 836.667 169.328 836.109 165.593 836.696C162.433 837.194 159.455 838.492 156.926 840.461C156.166 841.052 155.063 841.011 154.421 840.294Z" stroke="#FFEDBE" stroke-width="4" mask="url(#path-30-outside-2_918_2)"/>
</g>
<g filter="url(#filter27_d_918_2)">
<mask id="path-31-outside-3_918_2" maskUnits="userSpaceOnUse" x="149" y="638" width="43" height="50" fill="black">
<rect fill="white" x="149" y="638" width="43" height="50"/>
<path d="M153.421 647.294C152.797 646.598 152.84 645.527 153.567 644.941C156.609 642.488 160.229 640.873 164.077 640.268C168.476 639.576 172.976 640.232 177.009 642.155C181.042 644.077 184.427 647.179 186.736 651.068C189.044 654.957 190.173 659.459 189.979 664.003C189.784 668.548 188.276 672.932 185.645 676.6C183.014 680.269 179.377 683.057 175.195 684.613C171.014 686.169 166.475 686.422 162.152 685.341C158.368 684.394 154.898 682.462 152.075 679.745C151.404 679.099 151.455 678.029 152.135 677.392C152.836 676.735 153.936 676.79 154.64 677.445C156.993 679.633 159.851 681.194 162.959 681.971C166.629 682.889 170.484 682.674 174.035 681.353C177.586 680.032 180.674 677.664 182.908 674.549C185.143 671.434 186.423 667.711 186.588 663.852C186.753 659.993 185.795 656.17 183.834 652.868C181.874 649.566 178.999 646.932 175.575 645.299C172.15 643.667 168.328 643.109 164.593 643.696C161.433 644.194 158.455 645.492 155.926 647.461C155.166 648.052 154.063 648.011 153.421 647.294Z"/>
</mask>
<path d="M153.421 647.294C152.797 646.598 152.84 645.527 153.567 644.941C156.609 642.488 160.229 640.873 164.077 640.268C168.476 639.576 172.976 640.232 177.009 642.155C181.042 644.077 184.427 647.179 186.736 651.068C189.044 654.957 190.173 659.459 189.979 664.003C189.784 668.548 188.276 672.932 185.645 676.6C183.014 680.269 179.377 683.057 175.195 684.613C171.014 686.169 166.475 686.422 162.152 685.341C158.368 684.394 154.898 682.462 152.075 679.745C151.404 679.099 151.455 678.029 152.135 677.392C152.836 676.735 153.936 676.79 154.64 677.445C156.993 679.633 159.851 681.194 162.959 681.971C166.629 682.889 170.484 682.674 174.035 681.353C177.586 680.032 180.674 677.664 182.908 674.549C185.143 671.434 186.423 667.711 186.588 663.852C186.753 659.993 185.795 656.17 183.834 652.868C181.874 649.566 178.999 646.932 175.575 645.299C172.15 643.667 168.328 643.109 164.593 643.696C161.433 644.194 158.455 645.492 155.926 647.461C155.166 648.052 154.063 648.011 153.421 647.294Z" stroke="#FFEDBE" stroke-width="4" mask="url(#path-31-outside-3_918_2)"/>
</g>
<g filter="url(#filter28_d_918_2)">
<mask id="path-32-outside-4_918_2" maskUnits="userSpaceOnUse" x="139" y="1208" width="43" height="50" fill="black">
<rect fill="white" x="139" y="1208" width="43" height="50"/>
<path d="M143.421 1217.29C142.797 1216.6 142.84 1215.53 143.567 1214.94C146.609 1212.49 150.229 1210.87 154.077 1210.27C158.476 1209.58 162.976 1210.23 167.009 1212.15C171.042 1214.08 174.427 1217.18 176.736 1221.07C179.044 1224.96 180.173 1229.46 179.979 1234C179.784 1238.55 178.276 1242.93 175.645 1246.6C173.014 1250.27 169.377 1253.06 165.195 1254.61C161.014 1256.17 156.475 1256.42 152.152 1255.34C148.368 1254.39 144.898 1252.46 142.075 1249.74C141.404 1249.1 141.455 1248.03 142.135 1247.39C142.836 1246.74 143.936 1246.79 144.64 1247.44C146.993 1249.63 149.851 1251.19 152.959 1251.97C156.629 1252.89 160.484 1252.67 164.035 1251.35C167.586 1250.03 170.674 1247.66 172.908 1244.55C175.143 1241.43 176.423 1237.71 176.588 1233.85C176.753 1229.99 175.795 1226.17 173.834 1222.87C171.874 1219.57 168.999 1216.93 165.575 1215.3C162.15 1213.67 158.328 1213.11 154.593 1213.7C151.433 1214.19 148.455 1215.49 145.926 1217.46C145.166 1218.05 144.063 1218.01 143.421 1217.29Z"/>
</mask>
<path d="M143.421 1217.29C142.797 1216.6 142.84 1215.53 143.567 1214.94C146.609 1212.49 150.229 1210.87 154.077 1210.27C158.476 1209.58 162.976 1210.23 167.009 1212.15C171.042 1214.08 174.427 1217.18 176.736 1221.07C179.044 1224.96 180.173 1229.46 179.979 1234C179.784 1238.55 178.276 1242.93 175.645 1246.6C173.014 1250.27 169.377 1253.06 165.195 1254.61C161.014 1256.17 156.475 1256.42 152.152 1255.34C148.368 1254.39 144.898 1252.46 142.075 1249.74C141.404 1249.1 141.455 1248.03 142.135 1247.39C142.836 1246.74 143.936 1246.79 144.64 1247.44C146.993 1249.63 149.851 1251.19 152.959 1251.97C156.629 1252.89 160.484 1252.67 164.035 1251.35C167.586 1250.03 170.674 1247.66 172.908 1244.55C175.143 1241.43 176.423 1237.71 176.588 1233.85C176.753 1229.99 175.795 1226.17 173.834 1222.87C171.874 1219.57 168.999 1216.93 165.575 1215.3C162.15 1213.67 158.328 1213.11 154.593 1213.7C151.433 1214.19 148.455 1215.49 145.926 1217.46C145.166 1218.05 144.063 1218.01 143.421 1217.29Z" stroke="#FFEDBE" stroke-width="4" mask="url(#path-32-outside-4_918_2)"/>
</g>
<g filter="url(#filter29_d_918_2)">
<mask id="path-33-outside-5_918_2" maskUnits="userSpaceOnUse" x="143" y="1503" width="43" height="50" fill="black">
<rect fill="white" x="143" y="1503" width="43" height="50"/>
<path d="M147.421 1512.29C146.797 1511.6 146.84 1510.53 147.567 1509.94C150.609 1507.49 154.229 1505.87 158.077 1505.27C162.476 1504.58 166.976 1505.23 171.009 1507.15C175.042 1509.08 178.427 1512.18 180.736 1516.07C183.044 1519.96 184.173 1524.46 183.979 1529C183.784 1533.55 182.276 1537.93 179.645 1541.6C177.014 1545.27 173.377 1548.06 169.195 1549.61C165.014 1551.17 160.475 1551.42 156.152 1550.34C152.368 1549.39 148.898 1547.46 146.075 1544.74C145.404 1544.1 145.455 1543.03 146.135 1542.39C146.836 1541.74 147.936 1541.79 148.64 1542.44C150.993 1544.63 153.851 1546.19 156.959 1546.97C160.629 1547.89 164.484 1547.67 168.035 1546.35C171.586 1545.03 174.674 1542.66 176.908 1539.55C179.143 1536.43 180.423 1532.71 180.588 1528.85C180.753 1524.99 179.795 1521.17 177.834 1517.87C175.874 1514.57 172.999 1511.93 169.575 1510.3C166.15 1508.67 162.328 1508.11 158.593 1508.7C155.433 1509.19 152.455 1510.49 149.926 1512.46C149.166 1513.05 148.063 1513.01 147.421 1512.29Z"/>
</mask>
<path d="M147.421 1512.29C146.797 1511.6 146.84 1510.53 147.567 1509.94C150.609 1507.49 154.229 1505.87 158.077 1505.27C162.476 1504.58 166.976 1505.23 171.009 1507.15C175.042 1509.08 178.427 1512.18 180.736 1516.07C183.044 1519.96 184.173 1524.46 183.979 1529C183.784 1533.55 182.276 1537.93 179.645 1541.6C177.014 1545.27 173.377 1548.06 169.195 1549.61C165.014 1551.17 160.475 1551.42 156.152 1550.34C152.368 1549.39 148.898 1547.46 146.075 1544.74C145.404 1544.1 145.455 1543.03 146.135 1542.39C146.836 1541.74 147.936 1541.79 148.64 1542.44C150.993 1544.63 153.851 1546.19 156.959 1546.97C160.629 1547.89 164.484 1547.67 168.035 1546.35C171.586 1545.03 174.674 1542.66 176.908 1539.55C179.143 1536.43 180.423 1532.71 180.588 1528.85C180.753 1524.99 179.795 1521.17 177.834 1517.87C175.874 1514.57 172.999 1511.93 169.575 1510.3C166.15 1508.67 162.328 1508.11 158.593 1508.7C155.433 1509.19 152.455 1510.49 149.926 1512.46C149.166 1513.05 148.063 1513.01 147.421 1512.29Z" stroke="#FFEDBE" stroke-width="4" mask="url(#path-33-outside-5_918_2)"/>
</g>
<g filter="url(#filter30_d_918_2)">
<mask id="path-34-outside-6_918_2" maskUnits="userSpaceOnUse" x="143" y="558" width="45" height="49" fill="black">
<rect fill="white" x="143" y="558" width="45" height="49"/>
<path d="M183.436 595.872C184.154 596.474 184.252 597.55 183.597 598.22C180.72 601.167 177.079 603.276 173.068 604.3C168.507 605.465 163.695 605.17 159.31 603.456C154.925 601.743 151.189 598.697 148.626 594.748C146.063 590.799 144.804 586.146 145.025 581.443C145.246 576.741 146.936 572.226 149.858 568.535C152.78 564.844 156.786 562.162 161.312 560.868C165.839 559.573 170.657 559.731 175.089 561.318C178.986 562.715 182.413 565.156 185.001 568.359C185.59 569.088 185.392 570.15 184.62 570.682C183.849 571.215 182.798 571.015 182.199 570.294C180.021 567.671 177.173 565.67 173.944 564.513C170.181 563.165 166.089 563.031 162.246 564.13C158.402 565.23 155 567.507 152.519 570.641C150.038 573.776 148.603 577.609 148.415 581.603C148.227 585.596 149.297 589.547 151.473 592.901C153.649 596.254 156.822 598.84 160.545 600.296C164.269 601.751 168.355 602.001 172.228 601.012C175.551 600.163 178.575 598.438 180.989 596.031C181.653 595.369 182.718 595.27 183.436 595.872Z"/>
</mask>
<path d="M183.436 595.872C184.154 596.474 184.252 597.55 183.597 598.22C180.72 601.167 177.079 603.276 173.068 604.3C168.507 605.465 163.695 605.17 159.31 603.456C154.925 601.743 151.189 598.697 148.626 594.748C146.063 590.799 144.804 586.146 145.025 581.443C145.246 576.741 146.936 572.226 149.858 568.535C152.78 564.844 156.786 562.162 161.312 560.868C165.839 559.573 170.657 559.731 175.089 561.318C178.986 562.715 182.413 565.156 185.001 568.359C185.59 569.088 185.392 570.15 184.62 570.682C183.849 571.215 182.798 571.015 182.199 570.294C180.021 567.671 177.173 565.67 173.944 564.513C170.181 563.165 166.089 563.031 162.246 564.13C158.402 565.23 155 567.507 152.519 570.641C150.038 573.776 148.603 577.609 148.415 581.603C148.227 585.596 149.297 589.547 151.473 592.901C153.649 596.254 156.822 598.84 160.545 600.296C164.269 601.751 168.355 602.001 172.228 601.012C175.551 600.163 178.575 598.438 180.989 596.031C181.653 595.369 182.718 595.27 183.436 595.872Z" stroke="#FFEDBE" stroke-width="4" mask="url(#path-34-outside-6_918_2)"/>
</g>
<g filter="url(#filter31_d_918_2)">
<mask id="path-35-outside-7_918_2" maskUnits="userSpaceOnUse" x="144" y="1309" width="45" height="49" fill="black">
<rect fill="white" x="144" y="1309" width="45" height="49"/>
<path d="M184.436 1346.87C185.154 1347.47 185.252 1348.55 184.597 1349.22C181.72 1352.17 178.079 1354.28 174.068 1355.3C169.507 1356.47 164.695 1356.17 160.31 1354.46C155.925 1352.74 152.189 1349.7 149.626 1345.75C147.063 1341.8 145.804 1337.15 146.025 1332.44C146.246 1327.74 147.936 1323.23 150.858 1319.53C153.78 1315.84 157.786 1313.16 162.312 1311.87C166.839 1310.57 171.657 1310.73 176.089 1312.32C179.986 1313.71 183.413 1316.16 186.001 1319.36C186.59 1320.09 186.392 1321.15 185.62 1321.68C184.849 1322.21 183.798 1322.02 183.199 1321.29C181.021 1318.67 178.173 1316.67 174.944 1315.51C171.181 1314.16 167.089 1314.03 163.246 1315.13C159.402 1316.23 156 1318.51 153.519 1321.64C151.038 1324.78 149.603 1328.61 149.415 1332.6C149.227 1336.6 150.297 1340.55 152.473 1343.9C154.649 1347.25 157.822 1349.84 161.545 1351.3C165.269 1352.75 169.355 1353 173.228 1352.01C176.551 1351.16 179.575 1349.44 181.989 1347.03C182.653 1346.37 183.718 1346.27 184.436 1346.87Z"/>
</mask>
<path d="M184.436 1346.87C185.154 1347.47 185.252 1348.55 184.597 1349.22C181.72 1352.17 178.079 1354.28 174.068 1355.3C169.507 1356.47 164.695 1356.17 160.31 1354.46C155.925 1352.74 152.189 1349.7 149.626 1345.75C147.063 1341.8 145.804 1337.15 146.025 1332.44C146.246 1327.74 147.936 1323.23 150.858 1319.53C153.78 1315.84 157.786 1313.16 162.312 1311.87C166.839 1310.57 171.657 1310.73 176.089 1312.32C179.986 1313.71 183.413 1316.16 186.001 1319.36C186.59 1320.09 186.392 1321.15 185.62 1321.68C184.849 1322.21 183.798 1322.02 183.199 1321.29C181.021 1318.67 178.173 1316.67 174.944 1315.51C171.181 1314.16 167.089 1314.03 163.246 1315.13C159.402 1316.23 156 1318.51 153.519 1321.64C151.038 1324.78 149.603 1328.61 149.415 1332.6C149.227 1336.6 150.297 1340.55 152.473 1343.9C154.649 1347.25 157.822 1349.84 161.545 1351.3C165.269 1352.75 169.355 1353 173.228 1352.01C176.551 1351.16 179.575 1349.44 181.989 1347.03C182.653 1346.37 183.718 1346.27 184.436 1346.87Z" stroke="#FFEDBE" stroke-width="4" mask="url(#path-35-outside-7_918_2)"/>
</g>
<g filter="url(#filter32_d_918_2)">
<mask id="path-36-outside-8_918_2" maskUnits="userSpaceOnUse" x="145" y="392" width="45" height="49" fill="black">
<rect fill="white" x="145" y="392" width="45" height="49"/>
<path d="M185.436 429.872C186.154 430.474 186.252 431.55 185.597 432.22C182.72 435.167 179.079 437.276 175.068 438.3C170.507 439.465 165.695 439.17 161.31 437.456C156.925 435.743 153.189 432.697 150.626 428.748C148.063 424.799 146.804 420.146 147.025 415.443C147.246 410.741 148.936 406.226 151.858 402.535C154.78 398.844 158.786 396.162 163.312 394.868C167.839 393.573 172.657 393.731 177.089 395.318C180.986 396.715 184.413 399.156 187.001 402.359C187.59 403.088 187.392 404.15 186.62 404.682C185.849 405.215 184.798 405.015 184.199 404.294C182.021 401.671 179.173 399.67 175.944 398.513C172.181 397.165 168.089 397.031 164.246 398.13C160.402 399.23 157 401.507 154.519 404.641C152.038 407.776 150.603 411.609 150.415 415.603C150.227 419.596 151.297 423.547 153.473 426.901C155.649 430.254 158.822 432.84 162.545 434.296C166.269 435.751 170.355 436.001 174.228 435.012C177.551 434.163 180.575 432.438 182.989 430.031C183.653 429.369 184.718 429.27 185.436 429.872Z"/>
</mask>
<path d="M185.436 429.872C186.154 430.474 186.252 431.55 185.597 432.22C182.72 435.167 179.079 437.276 175.068 438.3C170.507 439.465 165.695 439.17 161.31 437.456C156.925 435.743 153.189 432.697 150.626 428.748C148.063 424.799 146.804 420.146 147.025 415.443C147.246 410.741 148.936 406.226 151.858 402.535C154.78 398.844 158.786 396.162 163.312 394.868C167.839 393.573 172.657 393.731 177.089 395.318C180.986 396.715 184.413 399.156 187.001 402.359C187.59 403.088 187.392 404.15 186.62 404.682C185.849 405.215 184.798 405.015 184.199 404.294C182.021 401.671 179.173 399.67 175.944 398.513C172.181 397.165 168.089 397.031 164.246 398.13C160.402 399.23 157 401.507 154.519 404.641C152.038 407.776 150.603 411.609 150.415 415.603C150.227 419.596 151.297 423.547 153.473 426.901C155.649 430.254 158.822 432.84 162.545 434.296C166.269 435.751 170.355 436.001 174.228 435.012C177.551 434.163 180.575 432.438 182.989 430.031C183.653 429.369 184.718 429.27 185.436 429.872Z" stroke="#FFEDBE" stroke-width="4" mask="url(#path-36-outside-8_918_2)"/>
</g>
<g filter="url(#filter33_d_918_2)">
<mask id="path-37-outside-9_918_2" maskUnits="userSpaceOnUse" x="144" y="933" width="45" height="49" fill="black">
<rect fill="white" x="144" y="933" width="45" height="49"/>
<path d="M184.436 970.872C185.154 971.474 185.252 972.55 184.597 973.22C181.72 976.167 178.079 978.276 174.068 979.3C169.507 980.465 164.695 980.17 160.31 978.456C155.925 976.743 152.189 973.697 149.626 969.748C147.063 965.799 145.804 961.146 146.025 956.443C146.246 951.741 147.936 947.226 150.858 943.535C153.78 939.844 157.786 937.162 162.312 935.868C166.839 934.573 171.657 934.731 176.089 936.318C179.986 937.715 183.413 940.156 186.001 943.359C186.59 944.088 186.392 945.15 185.62 945.682C184.849 946.215 183.798 946.015 183.199 945.294C181.021 942.671 178.173 940.67 174.944 939.513C171.181 938.165 167.089 938.031 163.246 939.13C159.402 940.23 156 942.507 153.519 945.641C151.038 948.776 149.603 952.609 149.415 956.603C149.227 960.596 150.297 964.547 152.473 967.901C154.649 971.254 157.822 973.84 161.545 975.296C165.269 976.751 169.355 977.001 173.228 976.012C176.551 975.163 179.575 973.438 181.989 971.031C182.653 970.369 183.718 970.27 184.436 970.872Z"/>
</mask>
<path d="M184.436 970.872C185.154 971.474 185.252 972.55 184.597 973.22C181.72 976.167 178.079 978.276 174.068 979.3C169.507 980.465 164.695 980.17 160.31 978.456C155.925 976.743 152.189 973.697 149.626 969.748C147.063 965.799 145.804 961.146 146.025 956.443C146.246 951.741 147.936 947.226 150.858 943.535C153.78 939.844 157.786 937.162 162.312 935.868C166.839 934.573 171.657 934.731 176.089 936.318C179.986 937.715 183.413 940.156 186.001 943.359C186.59 944.088 186.392 945.15 185.62 945.682C184.849 946.215 183.798 946.015 183.199 945.294C181.021 942.671 178.173 940.67 174.944 939.513C171.181 938.165 167.089 938.031 163.246 939.13C159.402 940.23 156 942.507 153.519 945.641C151.038 948.776 149.603 952.609 149.415 956.603C149.227 960.596 150.297 964.547 152.473 967.901C154.649 971.254 157.822 973.84 161.545 975.296C165.269 976.751 169.355 977.001 173.228 976.012C176.551 975.163 179.575 973.438 181.989 971.031C182.653 970.369 183.718 970.27 184.436 970.872Z" stroke="#FFEDBE" stroke-width="4" mask="url(#path-37-outside-9_918_2)"/>
</g>
<defs>
<filter id="filter0_d_918_2" x="0.660034" y="1071" width="275.338" height="94.2402" filterUnits="userSpaceOnUse" color-interpolation-filters="sRGB">
<feFlood flood-opacity="0" result="BackgroundImageFix"/>
<feColorMatrix in="SourceAlpha" type="matrix" values="0 0 0 0 0 0 0 0 0 0 0 0 0 0 0 0 0 0 127 0" result="hardAlpha"/>
<feOffset/>
<feGaussianBlur stdDeviation="20"/>
<feComposite in2="hardAlpha" operator="out"/>
<feColorMatrix type="matrix" values="0 0 0 0 0.904167 0 0 0 0 0 0 0 0 0 0 0 0 0 0.6 0"/>
<feBlend mode="normal" in2="BackgroundImageFix" result="effect1_dropShadow_918_2"/>
<feBlend mode="normal" in="SourceGraphic" in2="effect1_dropShadow_918_2" result="shape"/>
</filter>
<filter id="filter1_ddi_918_2" x="47" y="0" width="244" height="254" filterUnits="userSpaceOnUse" color-interpolation-filters="sRGB">
<feFlood flood-opacity="0" result="BackgroundImageFix"/>
<feColorMatrix in="SourceAlpha" type="matrix" values="0 0 0 0 0 0 0 0 0 0 0 0 0 0 0 0 0 0 127 0" result="hardAlpha"/>
<feOffset/>
<feGaussianBlur stdDeviation="4"/>
<feColorMatrix type="matrix" values="0 0 0 0 0.94902 0 0 0 0 0.690196 0 0 0 0 0.0117647 0 0 0 1 0"/>
<feBlend mode="normal" in2="BackgroundImageFix" result="effect1_dropShadow_918_2"/>
<feColorMatrix in="SourceAlpha" type="matrix" values="0 0 0 0 0 0 0 0 0 0 0 0 0 0 0 0 0 0 127 0" result="hardAlpha"/>
<feOffset/>
<feGaussianBlur stdDeviation="15"/>
<feColorMatrix type="matrix" values="0 0 0 0 1 0 0 0 0 0 0 0 0 0 0 0 0 0 0.5 0"/>
<feBlend mode="normal" in2="effect1_dropShadow_918_2" result="effect2_dropShadow_918_2"/>
<feBlend mode="normal" in="SourceGraphic" in2="effect2_dropShadow_918_2" result="shape"/>
<feColorMatrix in="SourceAlpha" type="matrix" values="0 0 0 0 0 0 0 0 0 0 0 0 0 0 0 0 0 0 127 0" result="hardAlpha"/>
<feOffset dy="4"/>
<feGaussianBlur stdDeviation="12.5"/>
<feComposite in2="hardAlpha" operator="arithmetic" k2="-1" k3="1"/>
<feColorMatrix type="matrix" values="0 0 0 0 0.94902 0 0 0 0 0.690196 0 0 0 0 0.0117647 0 0 0 1 0"/>
<feBlend mode="darken" in2="shape" result="effect3_innerShadow_918_2"/>
</filter>
<filter id="filter2_d_918_2" x="159.5" y="220.5" width="19" height="91" filterUnits="userSpaceOnUse" color-interpolation-filters="sRGB">
<feFlood flood-opacity="0" result="BackgroundImageFix"/>
<feColorMatrix in="SourceAlpha" type="matrix" values="0 0 0 0 0 0 0 0 0 0 0 0 0 0 0 0 0 0 127 0" result="hardAlpha"/>
<feOffset/>
<feGaussianBlur stdDeviation="4"/>
<feComposite in2="hardAlpha" operator="out"/>
<feColorMatrix type="matrix" values="0 0 0 0 1 0 0 0 0 0.48 0 0 0 0 0 0 0 0 1 0"/>
<feBlend mode="normal" in2="BackgroundImageFix" result="effect1_dropShadow_918_2"/>
<feBlend mode="normal" in="SourceGraphic" in2="effect1_dropShadow_918_2" result="shape"/>
</filter>
<filter id="filter3_d_918_2" x="159.5" y="347.5" width="19" height="44" filterUnits="userSpaceOnUse" color-interpolation-filters="sRGB">
<feFlood flood-opacity="0" result="BackgroundImageFix"/>
<feColorMatrix in="SourceAlpha" type="matrix" values="0 0 0 0 0 0 0 0 0 0 0 0 0 0 0 0 0 0 127 0" result="hardAlpha"/>
<feOffset/>
<feGaussianBlur stdDeviation="4"/>
<feComposite in2="hardAlpha" operator="out"/>
<feColorMatrix type="matrix" values="0 0 0 0 1 0 0 0 0 0.48 0 0 0 0 0 0 0 0 1 0"/>
<feBlend mode="normal" in2="BackgroundImageFix" result="effect1_dropShadow_918_2"/>
<feBlend mode="normal" in="SourceGraphic" in2="effect1_dropShadow_918_2" result="shape"/>
</filter>
<filter id="filter4_d_918_2" x="159.5" y="437.5" width="19" height="26" filterUnits="userSpaceOnUse" color-interpolation-filters="sRGB">
<feFlood flood-opacity="0" result="BackgroundImageFix"/>
<feColorMatrix in="SourceAlpha" type="matrix" values="0 0 0 0 0 0 0 0 0 0 0 0 0 0 0 0 0 0 127 0" result="hardAlpha"/>
<feOffset/>
<feGaussianBlur stdDeviation="4"/>
<feComposite in2="hardAlpha" operator="out"/>
<feColorMatrix type="matrix" values="0 0 0 0 1 0 0 0 0 0.48 0 0 0 0 0 0 0 0 1 0"/>
<feBlend mode="normal" in2="BackgroundImageFix" result="effect1_dropShadow_918_2"/>
<feBlend mode="normal" in="SourceGraphic" in2="effect1_dropShadow_918_2" result="shape"/>
</filter>
<filter id="filter5_d_918_2" x="157.5" y="687.5" width="19" height="50" filterUnits="userSpaceOnUse" color-interpolation-filters="sRGB">
<feFlood flood-opacity="0" result="BackgroundImageFix"/>
<feColorMatrix in="SourceAlpha" type="matrix" values="0 0 0 0 0 0 0 0 0 0 0 0 0 0 0 0 0 0 127 0" result="hardAlpha"/>
<feOffset/>
<feGaussianBlur stdDeviation="4"/>
<feComposite in2="hardAlpha" operator="out"/>
<feColorMatrix type="matrix" values="0 0 0 0 1 0 0 0 0 0.48 0 0 0 0 0 0 0 0 1 0"/>
<feBlend mode="normal" in2="BackgroundImageFix" result="effect1_dropShadow_918_2"/>
<feBlend mode="normal" in="SourceGraphic" in2="effect1_dropShadow_918_2" result="shape"/>
</filter>
<filter id="filter6_d_918_2" x="157.5" y="605.5" width="19" height="34" filterUnits="userSpaceOnUse" color-interpolation-filters="sRGB">
<feFlood flood-opacity="0" result="BackgroundImageFix"/>
<feColorMatrix in="SourceAlpha" type="matrix" values="0 0 0 0 0 0 0 0 0 0 0 0 0 0 0 0 0 0 127 0" result="hardAlpha"/>
<feOffset/>
<feGaussianBlur stdDeviation="4"/>
<feComposite in2="hardAlpha" operator="out"/>
<feColorMatrix type="matrix" values="0 0 0 0 1 0 0 0 0 0.48 0 0 0 0 0 0 0 0 1 0"/>
<feBlend mode="normal" in2="BackgroundImageFix" result="effect1_dropShadow_918_2"/>
<feBlend mode="normal" in="SourceGraphic" in2="effect1_dropShadow_918_2" result="shape"/>
</filter>
<filter id="filter7_d_918_2" x="158.5" y="759.5" width="19" height="69" filterUnits="userSpaceOnUse" color-interpolation-filters="sRGB">
<feFlood flood-opacity="0" result="BackgroundImageFix"/>
<feColorMatrix in="SourceAlpha" type="matrix" values="0 0 0 0 0 0 0 0 0 0 0 0 0 0 0 0 0 0 127 0" result="hardAlpha"/>
<feOffset/>
<feGaussianBlur stdDeviation="4"/>
<feComposite in2="hardAlpha" operator="out"/>
<feColorMatrix type="matrix" values="0 0 0 0 1 0 0 0 0 0.48 0 0 0 0 0 0 0 0 1 0"/>
<feBlend mode="normal" in2="BackgroundImageFix" result="effect1_dropShadow_918_2"/>
<feBlend mode="normal" in="SourceGraphic" in2="effect1_dropShadow_918_2" result="shape"/>
</filter>
<filter id="filter8_d_918_2" x="158.5" y="984.5" width="19" height="131" filterUnits="userSpaceOnUse" color-interpolation-filters="sRGB">
<feFlood flood-opacity="0" result="BackgroundImageFix"/>
<feColorMatrix in="SourceAlpha" type="matrix" values="0 0 0 0 0 0 0 0 0 0 0 0 0 0 0 0 0 0 127 0" result="hardAlpha"/>
<feOffset/>
<feGaussianBlur stdDeviation="4"/>
<feComposite in2="hardAlpha" operator="out"/>
<feColorMatrix type="matrix" values="0 0 0 0 1 0 0 0 0 0.48 0 0 0 0 0 0 0 0 1 0"/>
<feBlend mode="normal" in2="BackgroundImageFix" result="effect1_dropShadow_918_2"/>
<feBlend mode="normal" in="SourceGraphic" in2="effect1_dropShadow_918_2" result="shape"/>
</filter>
<filter id="filter9_d_918_2" x="154.5" y="1356.5" width="19" height="49" filterUnits="userSpaceOnUse" color-interpolation-filters="sRGB">
<feFlood flood-opacity="0" result="BackgroundImageFix"/>
<feColorMatrix in="SourceAlpha" type="matrix" values="0 0 0 0 0 0 0 0 0 0 0 0 0 0 0 0 0 0 127 0" result="hardAlpha"/>
<feOffset/>
<feGaussianBlur stdDeviation="4"/>
<feComposite in2="hardAlpha" operator="out"/>
<feColorMatrix type="matrix" values="0 0 0 0 1 0 0 0 0 0.48 0 0 0 0 0 0 0 0 1 0"/>
<feBlend mode="normal" in2="BackgroundImageFix" result="effect1_dropShadow_918_2"/>
<feBlend mode="normal" in="SourceGraphic" in2="effect1_dropShadow_918_2" result="shape"/>
</filter>
<filter id="filter10_d_918_2" x="154.5" y="1422.5" width="19" height="82" filterUnits="userSpaceOnUse" color-interpolation-filters="sRGB">
<feFlood flood-opacity="0" result="BackgroundImageFix"/>
<feColorMatrix in="SourceAlpha" type="matrix" values="0 0 0 0 0 0 0 0 0 0 0 0 0 0 0 0 0 0 127 0" result="hardAlpha"/>
<feOffset/>
<feGaussianBlur stdDeviation="4"/>
<feComposite in2="hardAlpha" operator="out"/>
<feColorMatrix type="matrix" values="0 0 0 0 1 0 0 0 0 0.48 0 0 0 0 0 0 0 0 1 0"/>
<feBlend mode="normal" in2="BackgroundImageFix" result="effect1_dropShadow_918_2"/>
<feBlend mode="normal" in="SourceGraphic" in2="effect1_dropShadow_918_2" result="shape"/>
</filter>
<filter id="filter11_d_918_2" x="154.5" y="1556.5" width="19" height="86" filterUnits="userSpaceOnUse" color-interpolation-filters="sRGB">
<feFlood flood-opacity="0" result="BackgroundImageFix"/>
<feColorMatrix in="SourceAlpha" type="matrix" values="0 0 0 0 0 0 0 0 0 0 0 0 0 0 0 0 0 0 127 0" result="hardAlpha"/>
<feOffset/>
<feGaussianBlur stdDeviation="4"/>
<feComposite in2="hardAlpha" operator="out"/>
<feColorMatrix type="matrix" values="0 0 0 0 1 0 0 0 0 0.48 0 0 0 0 0 0 0 0 1 0"/>
<feBlend mode="normal" in2="BackgroundImageFix" result="effect1_dropShadow_918_2"/>
<feBlend mode="normal" in="SourceGraphic" in2="effect1_dropShadow_918_2" result="shape"/>
</filter>
<filter id="filter12_d_918_2" x="155.5" y="1137.5" width="19" height="64" filterUnits="userSpaceOnUse" color-interpolation-filters="sRGB">
<feFlood flood-opacity="0" result="BackgroundImageFix"/>
<feColorMatrix in="SourceAlpha" type="matrix" values="0 0 0 0 0 0 0 0 0 0 0 0 0 0 0 0 0 0 127 0" result="hardAlpha"/>
<feOffset/>
<feGaussianBlur stdDeviation="4"/>
<feComposite in2="hardAlpha" operator="out"/>
<feColorMatrix type="matrix" values="0 0 0 0 1 0 0 0 0 0.48 0 0 0 0 0 0 0 0 1 0"/>
<feBlend mode="normal" in2="BackgroundImageFix" result="effect1_dropShadow_918_2"/>
<feBlend mode="normal" in="SourceGraphic" in2="effect1_dropShadow_918_2" result="shape"/>
</filter>
<filter id="filter13_d_918_2" x="155.5" y="1259.5" width="19" height="51" filterUnits="userSpaceOnUse" color-interpolation-filters="sRGB">
<feFlood flood-opacity="0" result="BackgroundImageFix"/>
<feColorMatrix in="SourceAlpha" type="matrix" values="0 0 0 0 0 0 0 0 0 0 0 0 0 0 0 0 0 0 127 0" result="hardAlpha"/>
<feOffset/>
<feGaussianBlur stdDeviation="4"/>
<feComposite in2="hardAlpha" operator="out"/>
<feColorMatrix type="matrix" values="0 0 0 0 1 0 0 0 0 0.48 0 0 0 0 0 0 0 0 1 0"/>
<feBlend mode="normal" in2="BackgroundImageFix" result="effect1_dropShadow_918_2"/>
<feBlend mode="normal" in="SourceGraphic" in2="effect1_dropShadow_918_2" result="shape"/>
</filter>
<filter id="filter14_d_918_2" x="158.5" y="879.5" width="19" height="56" filterUnits="userSpaceOnUse" color-interpolation-filters="sRGB">
<feFlood flood-opacity="0" result="BackgroundImageFix"/>
<feColorMatrix in="SourceAlpha" type="matrix" values="0 0 0 0 0 0 0 0 0 0 0 0 0 0 0 0 0 0 127 0" result="hardAlpha"/>
<feOffset/>
<feGaussianBlur stdDeviation="4"/>
<feComposite in2="hardAlpha" operator="out"/>
<feColorMatrix type="matrix" values="0 0 0 0 1 0 0 0 0 0.48 0 0 0 0 0 0 0 0 1 0"/>
<feBlend mode="normal" in2="BackgroundImageFix" result="effect1_dropShadow_918_2"/>
<feBlend mode="normal" in="SourceGraphic" in2="effect1_dropShadow_918_2" result="shape"/>
</filter>
<filter id="filter15_d_918_2" x="155.5" y="504.5" width="19" height="57" filterUnits="userSpaceOnUse" color-interpolation-filters="sRGB">
<feFlood flood-opacity="0" result="BackgroundImageFix"/>
<feColorMatrix in="SourceAlpha" type="matrix" values="0 0 0 0 0 0 0 0 0 0 0 0 0 0 0 0 0 0 127 0" result="hardAlpha"/>
<feOffset/>
<feGaussianBlur stdDeviation="4"/>
<feComposite in2="hardAlpha" operator="out"/>
<feColorMatrix type="matrix" values="0 0 0 0 1 0 0 0 0 0.48 0 0 0 0 0 0 0 0 1 0"/>
<feBlend mode="normal" in2="BackgroundImageFix" result="effect1_dropShadow_918_2"/>
<feBlend mode="normal" in="SourceGraphic" in2="effect1_dropShadow_918_2" result="shape"/>
</filter>
<filter id="filter16_d_918_2" x="52.5" y="474.5" width="122" height="19" filterUnits="userSpaceOnUse" color-interpolation-filters="sRGB">
<feFlood flood-opacity="0" result="BackgroundImageFix"/>
<feColorMatrix in="SourceAlpha" type="matrix" values="0 0 0 0 0 0 0 0 0 0 0 0 0 0 0 0 0 0 127 0" result="hardAlpha"/>
<feOffset/>
<feGaussianBlur stdDeviation="4"/>
<feComposite in2="hardAlpha" operator="out"/>
<feColorMatrix type="matrix" values="0 0 0 0 1 0 0 0 0 0.48 0 0 0 0 0 0 0 0 1 0"/>
<feBlend mode="normal" in2="BackgroundImageFix" result="effect1_dropShadow_918_2"/>
<feBlend mode="normal" in="SourceGraphic" in2="effect1_dropShadow_918_2" result="shape"/>
</filter>
<filter id="filter17_d_918_2" x="56.5" y="846.5" width="122" height="19" filterUnits="userSpaceOnUse" color-interpolation-filters="sRGB">
<feFlood flood-opacity="0" result="BackgroundImageFix"/>
<feColorMatrix in="SourceAlpha" type="matrix" values="0 0 0 0 0 0 0 0 0 0 0 0 0 0 0 0 0 0 127 0" result="hardAlpha"/>
<feOffset/>
<feGaussianBlur stdDeviation="4"/>
<feComposite in2="hardAlpha" operator="out"/>
<feColorMatrix type="matrix" values="0 0 0 0 1 0 0 0 0 0.48 0 0 0 0 0 0 0 0 1 0"/>
<feBlend mode="normal" in2="BackgroundImageFix" result="effect1_dropShadow_918_2"/>
<feBlend mode="normal" in="SourceGraphic" in2="effect1_dropShadow_918_2" result="shape"/>
</filter>
<filter id="filter18_d_918_2" x="97.5" y="654.5" width="80" height="19" filterUnits="userSpaceOnUse" color-interpolation-filters="sRGB">
<feFlood flood-opacity="0" result="BackgroundImageFix"/>
<feColorMatrix in="SourceAlpha" type="matrix" values="0 0 0 0 0 0 0 0 0 0 0 0 0 0 0 0 0 0 127 0" result="hardAlpha"/>
<feOffset/>
<feGaussianBlur stdDeviation="4"/>
<feComposite in2="hardAlpha" operator="out"/>
<feColorMatrix type="matrix" values="0 0 0 0 1 0 0 0 0 0.48 0 0 0 0 0 0 0 0 1 0"/>
<feBlend mode="normal" in2="BackgroundImageFix" result="effect1_dropShadow_918_2"/>
<feBlend mode="normal" in="SourceGraphic" in2="effect1_dropShadow_918_2" result="shape"/>
</filter>
<filter id="filter19_d_918_2" x="87.5" y="1224.5" width="80" height="19" filterUnits="userSpaceOnUse" color-interpolation-filters="sRGB">
<feFlood flood-opacity="0" result="BackgroundImageFix"/>
<feColorMatrix in="SourceAlpha" type="matrix" values="0 0 0 0 0 0 0 0 0 0 0 0 0 0 0 0 0 0 127 0" result="hardAlpha"/>
<feOffset/>
<feGaussianBlur stdDeviation="4"/>
<feComposite in2="hardAlpha" operator="out"/>
<feColorMatrix type="matrix" values="0 0 0 0 1 0 0 0 0 0.48 0 0 0 0 0 0 0 0 1 0"/>
<feBlend mode="normal" in2="BackgroundImageFix" result="effect1_dropShadow_918_2"/>
<feBlend mode="normal" in="SourceGraphic" in2="effect1_dropShadow_918_2" result="shape"/>
</filter>
<filter id="filter20_d_918_2" x="91.5" y="1519.5" width="80" height="19" filterUnits="userSpaceOnUse" color-interpolation-filters="sRGB">
<feFlood flood-opacity="0" result="BackgroundImageFix"/>
<feColorMatrix in="SourceAlpha" type="matrix" values="0 0 0 0 0 0 0 0 0 0 0 0 0 0 0 0 0 0 127 0" result="hardAlpha"/>
<feOffset/>
<feGaussianBlur stdDeviation="4"/>
<feComposite in2="hardAlpha" operator="out"/>
<feColorMatrix type="matrix" values="0 0 0 0 1 0 0 0 0 0.48 0 0 0 0 0 0 0 0 1 0"/>
<feBlend mode="normal" in2="BackgroundImageFix" result="effect1_dropShadow_918_2"/>
<feBlend mode="normal" in="SourceGraphic" in2="effect1_dropShadow_918_2" result="shape"/>
</filter>
<filter id="filter21_d_918_2" x="158.5" y="572.5" width="163" height="19" filterUnits="userSpaceOnUse" color-interpolation-filters="sRGB">
<feFlood flood-opacity="0" result="BackgroundImageFix"/>
<feColorMatrix in="SourceAlpha" type="matrix" values="0 0 0 0 0 0 0 0 0 0 0 0 0 0 0 0 0 0 127 0" result="hardAlpha"/>
<feOffset/>
<feGaussianBlur stdDeviation="4"/>
<feComposite in2="hardAlpha" operator="out"/>
<feColorMatrix type="matrix" values="0 0 0 0 1 0 0 0 0 0.48 0 0 0 0 0 0 0 0 1 0"/>
<feBlend mode="normal" in2="BackgroundImageFix" result="effect1_dropShadow_918_2"/>
<feBlend mode="normal" in="SourceGraphic" in2="effect1_dropShadow_918_2" result="shape"/>
</filter>
<filter id="filter22_d_918_2" x="159.5" y="1323.5" width="163" height="19" filterUnits="userSpaceOnUse" color-interpolation-filters="sRGB">
<feFlood flood-opacity="0" result="BackgroundImageFix"/>
<feColorMatrix in="SourceAlpha" type="matrix" values="0 0 0 0 0 0 0 0 0 0 0 0 0 0 0 0 0 0 127 0" result="hardAlpha"/>
<feOffset/>
<feGaussianBlur stdDeviation="4"/>
<feComposite in2="hardAlpha" operator="out"/>
<feColorMatrix type="matrix" values="0 0 0 0 1 0 0 0 0 0.48 0 0 0 0 0 0 0 0 1 0"/>
<feBlend mode="normal" in2="BackgroundImageFix" result="effect1_dropShadow_918_2"/>
<feBlend mode="normal" in="SourceGraphic" in2="effect1_dropShadow_918_2" result="shape"/>
</filter>
<filter id="filter23_d_918_2" x="159.5" y="407.5" width="41" height="19" filterUnits="userSpaceOnUse" color-interpolation-filters="sRGB">
<feFlood flood-opacity="0" result="BackgroundImageFix"/>
<feColorMatrix in="SourceAlpha" type="matrix" values="0 0 0 0 0 0 0 0 0 0 0 0 0 0 0 0 0 0 127 0" result="hardAlpha"/>
<feOffset/>
<feGaussianBlur stdDeviation="4"/>
<feComposite in2="hardAlpha" operator="out"/>
<feColorMatrix type="matrix" values="0 0 0 0 1 0 0 0 0 0.48 0 0 0 0 0 0 0 0 1 0"/>
<feBlend mode="normal" in2="BackgroundImageFix" result="effect1_dropShadow_918_2"/>
<feBlend mode="normal" in="SourceGraphic" in2="effect1_dropShadow_918_2" result="shape"/>
</filter>
<filter id="filter24_d_918_2" x="158.5" y="948.5" width="41" height="19" filterUnits="userSpaceOnUse" color-interpolation-filters="sRGB">
<feFlood flood-opacity="0" result="BackgroundImageFix"/>
<feColorMatrix in="SourceAlpha" type="matrix" values="0 0 0 0 0 0 0 0 0 0 0 0 0 0 0 0 0 0 127 0" result="hardAlpha"/>
<feOffset/>
<feGaussianBlur stdDeviation="4"/>
<feComposite in2="hardAlpha" operator="out"/>
<feColorMatrix type="matrix" values="0 0 0 0 1 0 0 0 0 0.48 0 0 0 0 0 0 0 0 1 0"/>
<feBlend mode="normal" in2="BackgroundImageFix" result="effect1_dropShadow_918_2"/>
<feBlend mode="normal" in="SourceGraphic" in2="effect1_dropShadow_918_2" result="shape"/>
</filter>
<filter id="filter25_d_918_2" x="142.597" y="455" width="50.4031" height="58" filterUnits="userSpaceOnUse" color-interpolation-filters="sRGB">
<feFlood flood-opacity="0" result="BackgroundImageFix"/>
<feColorMatrix in="SourceAlpha" type="matrix" values="0 0 0 0 0 0 0 0 0 0 0 0 0 0 0 0 0 0 127 0" result="hardAlpha"/>
<feOffset/>
<feGaussianBlur stdDeviation="2"/>
<feColorMatrix type="matrix" values="0 0 0 0 1 0 0 0 0 0.48 0 0 0 0 0 0 0 0 1 0"/>
<feBlend mode="normal" in2="BackgroundImageFix" result="effect1_dropShadow_918_2"/>
<feBlend mode="normal" in="SourceGraphic" in2="effect1_dropShadow_918_2" result="shape"/>
</filter>
<filter id="filter26_d_918_2" x="146.597" y="827" width="50.4031" height="58" filterUnits="userSpaceOnUse" color-interpolation-filters="sRGB">
<feFlood flood-opacity="0" result="BackgroundImageFix"/>
<feColorMatrix in="SourceAlpha" type="matrix" values="0 0 0 0 0 0 0 0 0 0 0 0 0 0 0 0 0 0 127 0" result="hardAlpha"/>
<feOffset/>
<feGaussianBlur stdDeviation="2"/>
<feColorMatrix type="matrix" values="0 0 0 0 1 0 0 0 0 0.48 0 0 0 0 0 0 0 0 1 0"/>
<feBlend mode="normal" in2="BackgroundImageFix" result="effect1_dropShadow_918_2"/>
<feBlend mode="normal" in="SourceGraphic" in2="effect1_dropShadow_918_2" result="shape"/>
</filter>
<filter id="filter27_d_918_2" x="145.597" y="634" width="50.4031" height="58" filterUnits="userSpaceOnUse" color-interpolation-filters="sRGB">
<feFlood flood-opacity="0" result="BackgroundImageFix"/>
<feColorMatrix in="SourceAlpha" type="matrix" values="0 0 0 0 0 0 0 0 0 0 0 0 0 0 0 0 0 0 127 0" result="hardAlpha"/>
<feOffset/>
<feGaussianBlur stdDeviation="2"/>
<feColorMatrix type="matrix" values="0 0 0 0 1 0 0 0 0 0.48 0 0 0 0 0 0 0 0 1 0"/>
<feBlend mode="normal" in2="BackgroundImageFix" result="effect1_dropShadow_918_2"/>
<feBlend mode="normal" in="SourceGraphic" in2="effect1_dropShadow_918_2" result="shape"/>
</filter>
<filter id="filter28_d_918_2" x="135.597" y="1204" width="50.4031" height="58" filterUnits="userSpaceOnUse" color-interpolation-filters="sRGB">
<feFlood flood-opacity="0" result="BackgroundImageFix"/>
<feColorMatrix in="SourceAlpha" type="matrix" values="0 0 0 0 0 0 0 0 0 0 0 0 0 0 0 0 0 0 127 0" result="hardAlpha"/>
<feOffset/>
<feGaussianBlur stdDeviation="2"/>
<feColorMatrix type="matrix" values="0 0 0 0 1 0 0 0 0 0.48 0 0 0 0 0 0 0 0 1 0"/>
<feBlend mode="normal" in2="BackgroundImageFix" result="effect1_dropShadow_918_2"/>
<feBlend mode="normal" in="SourceGraphic" in2="effect1_dropShadow_918_2" result="shape"/>
</filter>
<filter id="filter29_d_918_2" x="139.597" y="1499" width="50.4031" height="58" filterUnits="userSpaceOnUse" color-interpolation-filters="sRGB">
<feFlood flood-opacity="0" result="BackgroundImageFix"/>
<feColorMatrix in="SourceAlpha" type="matrix" values="0 0 0 0 0 0 0 0 0 0 0 0 0 0 0 0 0 0 127 0" result="hardAlpha"/>
<feOffset/>
<feGaussianBlur stdDeviation="2"/>
<feColorMatrix type="matrix" values="0 0 0 0 1 0 0 0 0 0.48 0 0 0 0 0 0 0 0 1 0"/>
<feBlend mode="normal" in2="BackgroundImageFix" result="effect1_dropShadow_918_2"/>
<feBlend mode="normal" in="SourceGraphic" in2="effect1_dropShadow_918_2" result="shape"/>
</filter>
<filter id="filter30_d_918_2" x="139" y="554" width="52.3468" height="57" filterUnits="userSpaceOnUse" color-interpolation-filters="sRGB">
<feFlood flood-opacity="0" result="BackgroundImageFix"/>
<feColorMatrix in="SourceAlpha" type="matrix" values="0 0 0 0 0 0 0 0 0 0 0 0 0 0 0 0 0 0 127 0" result="hardAlpha"/>
<feOffset/>
<feGaussianBlur stdDeviation="2"/>
<feColorMatrix type="matrix" values="0 0 0 0 1 0 0 0 0 0.48 0 0 0 0 0 0 0 0 1 0"/>
<feBlend mode="normal" in2="BackgroundImageFix" result="effect1_dropShadow_918_2"/>
<feBlend mode="normal" in="SourceGraphic" in2="effect1_dropShadow_918_2" result="shape"/>
</filter>
<filter id="filter31_d_918_2" x="140" y="1305" width="52.3468" height="57" filterUnits="userSpaceOnUse" color-interpolation-filters="sRGB">
<feFlood flood-opacity="0" result="BackgroundImageFix"/>
<feColorMatrix in="SourceAlpha" type="matrix" values="0 0 0 0 0 0 0 0 0 0 0 0 0 0 0 0 0 0 127 0" result="hardAlpha"/>
<feOffset/>
<feGaussianBlur stdDeviation="2"/>
<feColorMatrix type="matrix" values="0 0 0 0 1 0 0 0 0 0.48 0 0 0 0 0 0 0 0 1 0"/>
<feBlend mode="normal" in2="BackgroundImageFix" result="effect1_dropShadow_918_2"/>
<feBlend mode="normal" in="SourceGraphic" in2="effect1_dropShadow_918_2" result="shape"/>
</filter>
<filter id="filter32_d_918_2" x="141" y="388" width="52.3468" height="57" filterUnits="userSpaceOnUse" color-interpolation-filters="sRGB">
<feFlood flood-opacity="0" result="BackgroundImageFix"/>
<feColorMatrix in="SourceAlpha" type="matrix" values="0 0 0 0 0 0 0 0 0 0 0 0 0 0 0 0 0 0 127 0" result="hardAlpha"/>
<feOffset/>
<feGaussianBlur stdDeviation="2"/>
<feColorMatrix type="matrix" values="0 0 0 0 1 0 0 0 0 0.48 0 0 0 0 0 0 0 0 1 0"/>
<feBlend mode="normal" in2="BackgroundImageFix" result="effect1_dropShadow_918_2"/>
<feBlend mode="normal" in="SourceGraphic" in2="effect1_dropShadow_918_2" result="shape"/>
</filter>
<filter id="filter33_d_918_2" x="140" y="929" width="52.3468" height="57" filterUnits="userSpaceOnUse" color-interpolation-filters="sRGB">
<feFlood flood-opacity="0" result="BackgroundImageFix"/>
<feColorMatrix in="SourceAlpha" type="matrix" values="0 0 0 0 0 0 0 0 0 0 0 0 0 0 0 0 0 0 127 0" result="hardAlpha"/>
<feOffset/>
<feGaussianBlur stdDeviation="2"/>
<feColorMatrix type="matrix" values="0 0 0 0 1 0 0 0 0 0.48 0 0 0 0 0 0 0 0 1 0"/>
<feBlend mode="normal" in2="BackgroundImageFix" result="effect1_dropShadow_918_2"/>
<feBlend mode="normal" in="SourceGraphic" in2="effect1_dropShadow_918_2" result="shape"/>
</filter>
</defs>
</svg>
